<svg xmlns="http://www.w3.org/2000/svg" version="1.1" xmlns:xlink="http://www.w3.org/1999/xlink" xmlns:svgjs="http://svgjs.com/svgjs" width="1000" height="1000"><rect width="1000" height="1000" rx="150" ry="150" fill="#292929"></rect><g transform="matrix(1.6129032258064515,0,0,1.6129032258064515,50.67464238309094,0.12754447998543128)"><svg xmlns="http://www.w3.org/2000/svg" version="1.1" xmlns:xlink="http://www.w3.org/1999/xlink" xmlns:svgjs="http://svgjs.com/svgjs" width="557" height="620"><svg width="557" height="620" viewBox="0 0 557 620" fill="none" xmlns="http://www.w3.org/2000/svg">
<path d="M47.2686 255.942C46.4817 259.492 54.1479 294.737 54.1479 297.737C54.2329 301.57 56.5909 305.007 55.7218 308.788C54.8598 312.538 52.0306 312.698 49.6259 310.822C46.0386 308.023 42.8262 306.881 39.0855 310.28C38.6529 310.673 37.8348 310.678 37.1827 310.787C24.3281 312.937 19.5745 321.815 24.864 333.846C25.4581 335.197 26.1741 336.495 27.235 338.623C21.958 335.603 19.0533 331.28 16.6048 327.083C8.96081 313.98 2.30291 300.375 0.668529 284.964C-0.738774 271.694 6.22198 258.459 20.6907 253.818C30.897 250.545 41.1757 250.473 51.668 250.039C80.2848 248.857 108.9 249.222 137.517 249.101C146.021 249.065 146.019 249.223 145.91 257.766L145.91 257.784C145.788 267.288 145.441 276.897 143.442 286.076C139.428 304.503 132.092 312.793 113.783 312.793C108.621 312.792 103.39 312.307 98.3091 312.961C85.3999 314.622 71.889 299.847 71.116 287.566C70.5018 277.808 68.798 268.118 68.1851 258.327C67.9186 254.069 60.9279 251.443 55.6272 253.422C51.3537 255.018 47.2686 253.818 47.2686 255.942Z" fill="#D9D9D9"></path>
<path d="M177.027 273.548C179.341 271.188 181.604 268.883 185.187 268.691C203.332 284.649 224.86 290.666 247.279 295.134C280.876 301.831 313.631 298.521 345.416 286.93C364.042 280.137 381.361 270.303 395.551 255.942C398.326 253.133 400.988 252.787 404.523 254.098C417.047 258.743 429.308 263.835 440.151 271.866C445.884 276.111 452.624 278.884 458.014 283.629C462.334 287.431 466.409 291.512 470.688 295.559C468.627 299.049 465.334 299.358 462.356 299.894C440.757 303.782 423.171 314.775 409.534 331.482C402.489 340.114 398.959 350.959 397.503 362.209C397.21 364.479 396.883 366.745 396.313 370.899C388.491 362.129 380.085 356.379 371.158 350.939C381.35 382.574 398.201 410.965 414.148 440.87C401.43 443.964 389.163 447.853 378.345 455.039C373.636 450.398 372.18 444.192 367.168 439.809C365.933 448.614 357.375 445.185 353.03 448.943C351.478 450.286 349.121 450.679 347.165 451.578C342.618 453.665 341.1 452.793 341.077 447.76C341.019 435.262 341.062 422.764 341.061 410.266C341.059 384.936 341.064 359.606 341.046 334.276C341.041 327.446 340.58 326.971 333.584 326.967C285.423 326.94 237.263 326.895 189.102 326.999C184.705 327.008 182.063 325.616 179.195 322.03C172.831 314.076 167.13 305.758 161.777 297.122C159.46 293.383 158.929 290.925 163.146 288.091C168.708 284.354 172.232 278.433 176.888 273.689L177.027 273.548Z" fill="#D9D9D9"></path>
<path d="M549.336 488.774C546.996 506.339 537.921 520.085 525.427 531.982C508.468 544.193 489.799 548.429 469.998 549.881C450.835 551.286 431.747 550.938 412.627 549.813C407.167 549.492 406.631 548.614 409.265 543.855C418.23 527.658 416.462 511.077 410.805 494.535C408.305 487.227 407.181 479.351 402.198 472.918C400.737 471.031 398.955 469.219 397.482 466.451C404.634 464.04 411.492 461.825 418.282 459.418C430.147 455.21 442.398 452.483 453.971 446.923C464.782 441.729 477.303 441.934 489.374 443.746C502.606 445.732 514.564 451.258 525.853 458.007C534.792 463.352 541.563 471.332 547.687 479.703C549.597 482.314 549.782 485.423 549.336 488.774Z" fill="#D9D9D9"></path>
<path d="M400.504 69.7058C398.011 69.7682 395.521 69.9104 393.03 70.0163C367.736 74.886 351.286 100.686 355.127 127.114C358.655 151.394 383.881 170.757 409.606 165.738C412.012 165.269 414.439 164.905 417.379 164.404C417.961 169.728 416.217 174.227 414.539 178.557L414.508 178.637C406.148 200.208 392.654 217.973 374.719 232.605C347.345 254.938 316.194 266.241 280.851 265.964C274.766 265.916 268.679 265.957 261.24 265.957C264.963 262.651 268.405 262.553 271.38 261.48C287.58 255.641 301.734 246.86 313.931 234.508C330.949 217.275 341.533 196.937 345.57 173.195C349.469 150.269 346.378 128.317 336.429 107.151C330.784 95.1405 324.236 83.9168 314.873 74.4654C312.66 72.2311 310.209 70.2322 307.861 68.1313C305.13 65.6866 304.799 63.1943 307.544 60.4797C317.116 51.0155 326.56 41.4192 336.253 32.0813C340.68 27.8167 344.154 22.6614 349.158 18.9262C351.591 17.1095 353.527 16.5782 356.29 18.2211C375.599 29.7051 391.749 44.4845 403.813 63.5275C406.87 68.3531 406.099 69.5658 400.504 69.7058Z" fill="#D9D9D9"></path>
<path d="M266.197 377.277C267.8 383.416 264.913 391.387 272.976 394.813C276.819 395.022 278.263 396.982 278.494 399.705C278.744 402.65 280.387 403.278 282.852 403.162C293.804 402.647 304.812 403.905 315.726 401.778C321.242 400.703 327.814 406.549 327.821 412.085C327.837 426.079 327.751 440.075 327.884 454.068C327.916 457.436 326.967 459.744 323.861 461.328C321.203 462.683 318.678 464.365 316.284 466.157C313.019 468.602 309.934 468.382 306.639 466.295C303.814 464.505 302.023 462.702 305.777 460.089C302.787 457.67 289.457 456.814 278.731 458.347C278.731 468.733 278.738 479.234 278.722 489.734C278.72 490.956 278.221 491.966 277.211 492.739C274.175 495.061 271.251 497.539 268.124 499.729C263.797 502.758 259.054 503.906 253.612 503.833C232.457 503.548 211.296 503.727 190.137 503.702C183.023 503.694 181.355 502.124 181.109 494.886C180.934 489.728 180.944 484.556 181.085 479.396C181.204 475.05 182.5 474.282 186.305 476.197C188.406 477.255 190.498 478.235 192.827 478.604C195.622 479.048 197.767 480.1 198.696 483.145C199.3 485.129 201.004 486.52 203.1 486.835C208.723 487.678 215.034 488.854 219.841 486.661C223.902 484.808 226.756 479.793 231.341 477.578C231.664 477.421 231.946 476.618 231.842 476.223C230.001 469.253 233.449 462.413 232.255 455.431C231.172 449.094 227.981 445.833 221.561 445.824C211.928 445.812 202.374 445.269 192.845 443.726C189.565 443.195 186.532 444.886 183.773 447.076C186.313 449.978 189.417 450.188 192.582 450.067C195.45 449.957 196.907 451.106 196.989 454.104C197.088 457.755 197.626 461.403 197.577 465.047C197.531 468.41 195.668 469.403 192.535 467.957C185.47 464.695 181.793 458.826 181.371 451.442C180.641 438.656 180.627 425.829 180.317 413.019C180.305 412.52 180.314 412.018 180.349 411.521C180.904 403.604 181.29 403.263 189.283 403.267L190.031 403.268C217.105 403.283 244.178 403.298 271.252 403.274C273.018 403.272 274.924 403.767 276.768 402.238C276.587 399.536 274.974 397.682 272.455 397.01C266.511 395.422 264.571 391.461 265.087 385.751C265.337 382.996 264.547 380.154 266.197 377.277Z" fill="#D9D9D9"></path>
<path d="M452.481 126.118C454.964 125.91 457.437 125.591 459.915 125.321C473.787 123.927 485.51 127.627 496.584 133.965C501.817 136.96 505.345 141.788 508.467 146.592C513.191 153.859 516.749 161.818 516.766 170.815C516.852 216.945 516.924 263.075 516.954 309.205C516.955 311.1 517.492 313.517 515.105 314.439C512.968 315.265 511.747 313.318 510.558 312.052C501.355 302.244 490.827 293.97 480.297 285.695L480.139 285.571C479.748 285.263 479.461 284.742 479.028 284.579C468.608 280.633 468.004 272.319 468.071 262.688C468.234 239.572 468.474 216.456 469.287 193.36C469.913 175.576 462.165 161.656 450.698 149.135C449.8 148.154 448.761 147.302 447.863 146.322C442.855 140.851 442.468 136.303 446.397 129.927C447.804 127.643 449.773 126.344 452.481 126.118Z" fill="#D9D9D9"></path>
<path d="M308.708 597.045C307.768 606.6 304.318 614.747 295.249 619.471C291.655 617.281 292.273 614.146 292.427 611.243C292.927 601.772 293.562 592.309 294.12 582.842C294.198 581.514 294.267 580.16 294.103 578.848C293.782 576.267 292.905 573.543 290.078 573.226C287.359 572.922 286.963 575.921 286.28 577.8C283.451 585.582 283.818 593.874 282.764 601.942C282.29 605.564 282.228 609.249 281.6 612.839C281.051 615.974 280.155 619.391 275.911 619.115C271.834 618.849 268.913 614.743 269.807 610.618C272.483 598.267 272.152 585.43 275.97 573.253C276.594 571.263 276.252 568.955 276.262 566.793C276.268 565.483 276.394 563.906 274.743 563.468C273.235 563.068 272.313 564.275 271.438 565.284C269.685 567.306 268.432 569.506 267.568 572.143C263.499 584.555 262.558 597.564 260.001 610.259C259.132 614.577 257.328 617.706 252.57 617.138C248.009 616.593 246.25 613.105 246.273 608.863C246.315 600.864 249.428 593.645 252.36 586.398C256.11 577.132 259.11 567.629 261.398 557.896C261.915 555.698 262.64 553.493 259.812 552.442C256.543 551.227 255.856 553.944 254.925 556.012C248.293 570.747 243.517 586.185 237.87 601.293C237.171 603.163 236.721 605.122 235.004 606.372C229.751 604.563 226.844 599.744 227.78 594.528C232.703 567.098 244.152 542.601 262.244 521.546C271.227 511.092 282.223 502.596 294.673 496.241C299.533 493.761 303.539 493.942 308.429 497.154C326.863 509.265 338.663 526.274 346.783 546.32C348.125 549.633 347.418 551.449 344.646 553.897C336.803 560.827 328.523 567.301 321.369 574.996C320.689 575.727 320.083 576.684 319.231 577.074C310.565 581.048 309.507 588.918 308.708 597.045Z" fill="#D9D9D9"></path>
<path d="M68.6025 441.337C77.4333 441.274 85.6821 438.957 93.6126 435.26C108.508 428.227 119.589 417.726 128.25 404.933C135.132 394.766 139.012 383.236 139.109 370.686C139.136 367.141 138.479 363.475 139.913 359.793C143.377 360.79 144.737 363.322 146.228 365.662C160.871 388.638 167.58 414.086 167.295 440.994C167.035 465.603 147.517 487.156 121.864 488.85C100.127 490.286 84.6423 480.542 73.118 462.885C69.8101 457.817 67.4609 452.346 65.0578 446.88C63.2026 442.661 64.0752 441.369 68.6025 441.337Z" fill="#D9D9D9"></path>
<path d="M89.5355 324.999C94.6245 325.727 99.7701 326.059 104.892 326.557C109.874 326.677 112.705 328.342 115.168 331.915C130.533 354.202 131.205 379.544 115.25 401.24C102.411 418.699 85.0859 429.044 62.5557 428.733C58.4029 428.675 55.4713 427.101 52.807 423.811C45.4332 414.705 39.6568 404.648 34.2565 394.334C33.0793 392.085 31.6069 390.644 29.1528 389.371C24.729 387.076 23.1708 381.853 19.8131 378.737C20.9357 376.187 22.7878 376.311 24.361 376.047C39.8198 373.45 53.5453 366.499 65.918 357.481C75.6588 350.381 84.579 341.739 85.2767 328.202C85.4226 325.371 86.7282 324.597 89.5355 324.999Z" fill="#D9D9D9"></path>
<path d="M528.196 361.936C526.358 363.82 524.117 362.149 522.05 361.982C511.059 361.327 500.963 360.042 490.848 361.742C483.979 362.897 477.337 364.631 470.944 367.59C459.279 372.989 449.339 380.784 440.803 390.079C433.156 398.406 427.747 408.434 423.56 419.021C422.923 420.632 423.162 422.729 421.185 423.794C419.002 422.672 418.564 420.361 417.891 418.451C411.886 401.418 406.921 384.021 409.272 365.798C411.139 351.323 417.336 338.303 429.281 329.345C436.632 323.834 444.097 317.933 453.329 315.548C464.234 312.731 475.09 309.601 486.58 310.14C490.734 310.335 493.279 312.995 495.842 315.452C508.647 327.729 518.844 342.029 527.674 357.348C528.511 358.8 529.589 360.508 528.196 361.936Z" fill="#D9D9D9"></path>
<path d="M441.011 411.539C453.759 390.756 471.371 377.027 495.988 373.36C506.03 373.514 515.229 372.393 524.209 375.133C528.411 376.416 532.434 378.005 535.581 381.107C538.585 384.069 540.626 386.558 537.756 391.778C534.715 397.311 538.116 403.667 541.554 408.491C546.435 415.338 550.173 422.706 553.652 430.251C558.69 441.175 557.393 452.054 553.424 463.276C547.507 461.796 544.638 457.048 540.779 453.937C523.81 440.259 504.665 431.972 483.053 430.091C468.95 428.863 455.061 430.473 442.669 438.402C440.794 439.602 438.905 441.058 437.097 438.498C435.559 436.32 432.997 435.315 434.17 431.043C436.014 424.331 437.303 417.585 441.011 411.539Z" fill="#D9D9D9"></path>
<path d="M326.814 116.847C332.488 131.715 335.636 146.741 334.004 162.641C331.269 191.419 318.973 213.97 297.646 232.202C280.141 247.169 259.973 253.609 237.504 253.718C223.813 253.784 211.242 249.495 198.964 243.228C181.921 234.529 168.941 221.645 158.97 205.958C149.538 191.118 143.772 174.684 143.178 156.663C142.556 137.79 144.094 119.311 152.371 102.107C167.193 71.3 190.979 53.499 225.827 50.0145C248.713 47.7261 268.303 55.5615 286.497 66.9246C305.287 78.6601 318.746 95.705 326.814 116.847Z" fill="#D9D9D9"></path>
<path d="M417.278 214.796C415.84 211.561 415.762 208.012 416.751 204.529C423.137 189.972 428.946 176.085 431.91 161.162C433.297 154.18 436.897 152.919 441.651 157.884C449.485 166.065 455.718 175.363 455.782 187.251C455.912 211.325 455.733 235.401 455.674 259.476C455.67 260.978 455.596 262.482 453.675 264.519C439.354 256.576 425.514 246.5 408.092 244.321C408.477 239.758 411.887 237.135 414.166 234.191C418.882 228.097 420.498 222.04 417.278 214.796Z" fill="#D9D9D9"></path>
<path d="M248.257 517.967L234.147 538.754C227.121 551.77 231.299 549.899 216.238 549.974C192.75 550.09 169.261 549.987 145.773 549.977C144.13 549.976 142.488 549.976 140.482 549.976C140.704 546.085 141.225 542.699 143.117 539.777C153.313 524.033 161.559 507.439 165.735 489.018C165.874 488.407 166.32 487.866 166.804 486.95C168.394 488.674 167.926 490.509 167.941 492.183C167.968 495.013 167.795 497.847 167.862 500.675C168.088 510.219 174.032 516.192 183.616 516.246C203.106 516.356 222.596 516.312 242.086 516.366C244.03 516.371 246.119 515.942 248.257 517.967Z" fill="#D9D9D9"></path>
<path d="M314.692 484.556C329.41 484.262 343.959 480.359 358.449 485.089C363.594 483.951 366.551 480.728 369.847 478.024C370.355 477.608 370.716 477.016 371.165 476.525C377.528 469.553 377.936 469.892 384.976 475.743L385.042 475.798C400.36 488.53 402.858 505.948 402.487 523.939C402.278 534.091 395.84 542.239 388.741 549.286C386.05 551.958 383.758 551.08 382.762 547.217C378.25 529.722 369.129 514.825 357.306 501.402C352.331 495.754 347.212 494.315 339.885 496.764C339.745 499.217 341.529 500.651 343.029 502.065C356.554 514.824 365.141 530.49 370.223 548.193C371.143 551.396 371.248 554.781 369.829 557.977C369.278 559.217 368.488 560.394 366.957 560.435C365.257 560.481 364.931 559.011 364.393 557.8C359.8 547.472 357.194 536.336 351.691 526.384C344.388 513.175 335.671 501.143 323.195 492.222C320.175 490.062 317.383 487.583 314.692 484.556Z" fill="#D9D9D9"></path>
<path d="M425.407 101.172C433.316 114.405 432.983 127.789 421.747 141.262C407.051 152.987 392.777 151.098 380.731 140.115C371.836 132.004 369.5 120.233 373.792 108.289C378.14 96.1913 386.433 89.1308 399.246 88.0404C410.487 87.0839 419.816 91.8176 425.407 101.172Z" fill="#D9D9D9"></path>
<path d="M189.454 43.6518C204.997 26.7629 223.768 15.2782 245.123 7.68133C261.815 1.10856 278.471 -0.317988 295.404 0.214452C297.488 0.279973 300.118 -0.323466 301.095 2.23325C301.992 4.5823 299.612 5.65925 298.349 7.09226C289.561 17.0659 280.697 26.9734 271.993 37.0197C268.719 40.7979 265.301 42.1504 260.166 40.7276C237.476 34.4413 215.064 36.16 192.986 43.9255C192.097 44.2384 191.201 44.9869 189.454 43.6518Z" fill="#D9D9D9"></path>
<path d="M283.358 49.8123C278.011 46.426 277.783 44.7214 282.103 39.6902C291.565 29.1325 300.59 19.1494 309.45 9.0223C313.199 4.73716 316.636 2.1626 323.084 4.65131C329.636 7.18017 336.898 7.87342 342.969 11.3781C343.228 13.3848 342.059 14.2194 341.165 15.1484C333.679 22.9283 326.125 30.6441 318.677 38.4609C313.277 44.1294 308.274 50.1614 304.154 56.8215C302.058 60.2107 299.873 60.5079 296.779 58.4606C292.341 55.5236 287.854 52.6601 283.358 49.8123Z" fill="#D9D9D9"></path>
<path d="M297.722 341.306C304.733 341.735 315.432 340.281 321.5 345C327.341 351.96 326.302 360.769 325.596 369.141C325.391 371.569 324.5 373.5 323 375C319.927 383.607 288.989 378.434 285.5 378.5C282.123 378.53 276.972 371.671 277.19 368.173C277.335 365.855 276.764 360.326 276.768 358C276.788 345.63 285.403 340.553 297.722 341.306Z" fill="#D9D9D9"></path>
<path d="M244.502 343.263C251.726 342.979 251.732 343.151 251.714 350.632C251.71 363.544 251.71 375.493 251.71 387.551C248.774 388.681 246.115 387.917 243.546 387.923C224.921 387.963 206.295 387.833 187.669 387.89C183.421 387.903 181.223 386.622 182.632 381.839C187.313 381.058 189.197 377.935 188.221 373.39C186.453 365.16 188.358 356.832 187.23 348.601C186.723 344.901 188.165 343.03 192.248 343.276C209.662 344.327 227.081 343.948 244.502 343.263Z" fill="#D9D9D9"></path>
<path d="M128.51 329.343C126.654 326.755 125.901 324.106 130.006 322.715C133.933 320.345 135.756 323.077 137.881 324.894C141.426 322.805 142.618 319.268 144.383 316.144C149.879 306.415 151.315 305.982 158.421 314.08C165.2 321.807 169.826 330.723 169.726 341.496C169.617 353.425 169.701 365.355 168.676 377.685C167.63 376.134 166.411 374.671 165.565 373.017C158.827 359.835 150.246 348.207 138.139 339.378C134.376 336.634 131.228 333.133 128.51 329.343Z" fill="#D9D9D9"></path>
<path d="M322.978 274.369C332.123 272.141 340.357 267.724 349.222 264.911C370.504 255.292 387.683 241.442 402.846 224.419C404.181 226.705 402.635 227.917 401.833 229.11C396.144 237.571 388.851 244.356 381.003 250.909C372.061 258.376 362.164 264.035 352.039 269.344C335.452 278.042 317.215 281.509 298.867 283.566C272.388 286.536 246.535 282.265 221.219 274.497C212.093 271.697 203.622 267.611 196.838 259.974C199.009 258.539 200.797 259.45 202.541 260.162C211.306 263.741 219.948 267.659 228.846 270.866C240.303 274.996 252.321 277.31 264.405 277.9C283.999 278.857 303.619 279.084 322.978 274.369Z" fill="#D9D9D9"></path>
<path d="M70.0873 329.049C71.4646 332.562 69.3746 334.231 66.8195 335.683C55.2935 349.273 42.1983 358.433 22.956 358.66C27.0576 352.656 31.4216 348.852 37.3956 347.429C43.4963 345.976 49.0132 343.582 53.8197 339.68C53.7464 337.195 51.3313 339.379 50.7335 337.538C53.092 334.418 53.4403 328.689 60.4969 331.526C63.2751 332.642 66.3888 328.86 70.0873 329.049Z" fill="#D9D9D9"></path>
<path d="M40.7997 333.317C39.325 333.787 37.8626 333.843 36.418 333.201C32.2167 330.598 31.4311 326.993 31.5228 323.283C31.6205 319.325 35.4777 315.426 38.6717 315.454C42.2581 315.484 46.1794 319.172 46.7913 323.09C47.5384 327.873 45.164 331.924 40.7997 333.317Z" fill="#D9D9D9"></path>
<path d="M415.082 454.18C411.697 459.329 406.561 459.801 402.238 461.617C399.172 461.986 396.128 465.584 394.708 461.827C393.24 457.943 397.475 457.582 399.966 456.9C404.595 455.631 409.09 453.301 415.082 454.18Z" fill="#D9D9D9"></path>
<path d="M208.5 467.957C207.047 465.147 208.109 459.735 212.501 456.922C216.764 456.359 221.43 456.827 221.561 461.933C221.643 465.137 220.779 473.228 218 474.5C216.123 475.36 211.339 473.445 208.5 467.957Z" fill="#D9D9D9"></path>
<path d="M27.7829 362.487C27.715 363.57 26.7987 363.672 26.0588 363.978C23.3673 365.283 21.3606 366.473 19.2147 367.305C17.3583 368.024 15.3472 368.316 13.7182 366.593C17.1454 360.012 20.7203 358.998 27.7829 362.487Z" fill="#D9D9D9"></path>
<path d="M354.032 464.417L354.05 464.411C359.003 464.141 362.973 461.926 367.321 463.589C358.899 465.721 350.123 466.349 342.093 470.019C345.536 466.866 349.784 465.641 354.032 464.417Z" fill="#D9D9D9"></path>
<path d="M265.335 371.524V354.833C265.423 352.533 265.5 351.102 265.578 349.672L265.578 349.669L266.414 349.683V371.45L265.335 371.524Z" fill="#D9D9D9"></path>
<path d="M265.506 339.767C265.597 337.126 267.708 337.332 269.495 337.151C272.803 337.458 273.194 339.103 272.438 341.087C271.758 342.869 270.14 342.734 268.634 342.272C267.281 341.858 265.434 341.859 265.506 339.767Z" fill="#D9D9D9"></path>
<path d="M293.544 226.557C281.151 237.204 267.246 243.31 251.476 246.559C231.419 250.69 213.94 245.046 197.44 234.938C178.121 223.104 164.874 205.852 156.052 185.139C150.65 172.457 149.945 158.967 150.133 145.475C150.338 130.696 153.06 116.317 159.766 102.998C163.642 95.2999 168.213 88.1201 174.217 81.6565C184.374 70.7226 196.411 63.0029 210.453 58.7549C230.47 52.6993 249.895 55.4301 268.601 64.4994C280.713 70.3718 291.744 77.9401 300.72 87.8093C308.988 96.8997 315.507 107.416 319.702 119.203C331.156 151.384 327.5 181.672 308.506 210.05C304.414 216.163 298.726 220.913 293.544 226.557ZM168.014 110.444C165.779 115.146 164.77 120.202 163.699 125.246C159.564 144.724 159.852 163.791 167.98 182.426C169.861 186.74 172.603 187.089 176.273 186.623C180.542 186.081 179.59 182.673 179.619 180.022C179.644 177.717 179.218 175.403 178.94 173.099C178.223 167.171 176.989 161.26 176.833 155.319C176.34 136.524 180.783 118.936 191.959 103.623C197.241 96.3867 201.455 87.9823 210.331 83.8672C213.024 82.6186 216.101 73.1898 214.582 71.8882C211.085 68.8921 207.135 69.9589 203.31 71.478C203.002 71.6003 202.71 71.7669 202.421 71.933C186.964 80.8465 175.578 93.441 168.014 110.444Z" fill="black"></path>
<path d="M414 117.5C414 122.194 410.194 126 405.5 126C400.806 126 397 122.194 397 117.5C397 112.806 400.806 109 405.5 109C410.194 109 414 112.806 414 117.5Z" fill="#FE0000"></path>
<path d="M244.917 371.985C244.923 369.857 244.923 368.049 244.923 365.906C245.519 366.359 245.858 366.482 245.888 366.657C247.884 378.408 246.155 381.013 234.475 380.006C223.164 379.031 211.903 379.667 200.625 379.346C192.852 379.125 192.851 379.206 192.901 371.549C192.938 365.73 193.022 359.911 192.989 354.092C192.969 350.603 194.428 348.864 198.062 348.944C211.822 349.249 225.583 349.511 239.344 349.708C242.472 349.753 243.223 351.432 243.269 354.171C243.38 360.722 242.581 367.349 244.688 374.021C244.785 373.281 244.848 372.793 244.917 371.985Z" fill="black"></path>
</svg></svg></g></svg>